<svg width="41" height="50" viewBox="0 0 41 50" fill="none" xmlns="http://www.w3.org/2000/svg">
<path d="M14.6367 37.9655C16.7699 37.8175 18.5825 37.7682 19.5936 37.7559L14.6367 37.9655Z" fill="#FF5959"/>
<path d="M20.9863 37.7559C21.9604 37.7682 23.662 37.8052 25.6842 37.9408L20.9863 37.7559Z" fill="#FF5959"/>
<path d="M20.2708 25.8574C20.2708 25.8574 16.2881 34.649 16.1895 34.8833C19.1241 34.6984 21.8121 34.7723 24.1303 34.8833C24.007 34.5751 20.2708 25.8574 20.2708 25.8574Z" fill="#FF5959"/>
<path d="M29.6178 38.3101L32.4784 44.685H28.6437L25.672 37.9525C23.6498 37.8169 21.9605 37.7799 20.9741 37.7676H19.5808C18.5573 37.7799 16.7571 37.8292 14.6239 37.9772L11.5043 44.6973H7.7312L10.6782 38.3594C5.11714 39.0499 0 40.5789 0 43.8835C0 49.8268 18.1258 49.9994 20.2836 49.9994C22.4291 49.9994 40.5672 49.8268 40.5672 43.8835C40.5672 40.4926 35.2651 38.9883 29.6178 38.3101Z" fill="#FF5959"/>
<path d="M28.2612 35.2774C31.8247 35.6474 35.3389 36.3502 38.8777 37.3859C38.8777 37.3859 22.0096 3.04562 20.419 0C18.6928 3.16893 1.97266 37.3736 1.97266 37.3736C5.3512 36.3872 8.69275 35.709 12.096 35.3268L20.3327 17.6326L28.2612 35.2774Z" fill="#FF5959"/>
</svg>

